<?xml version="1.0" encoding="UTF-8"?>
<svg version="1.1" xmlns="http://www.w3.org/2000/svg" width="300" height="72">
<path d="M0 0 C99 0 198 0 300 0 C300 23.76 300 47.52 300 72 C201 72 102 72 0 72 C0 48.24 0 24.48 0 0 Z " fill="#FDFDFD" transform="translate(0,0)"/>
<path d="M0 0 C19.14 0 38.28 0 58 0 C58 19.14 58 38.28 58 58 C38.86 58 19.72 58 0 58 C0 38.86 0 19.72 0 0 Z " fill="#D6D8C6" transform="translate(7,7)"/>
<path d="M0 0 C5.11308529 1.80887451 8.89848439 4.95725038 11.30859375 9.91796875 C13.24659542 15.75387209 14.02159406 21.65539431 11.4375 27.375 C8.34020341 32.58700254 3.91787436 36.38603427 -2 38 C-3.64421794 38.1630401 -5.29037911 38.3070106 -6.9375 38.4375 C-11.21598724 38.78284875 -14.27867557 39.74761942 -18 42 C-17.87625 40.989375 -17.7525 39.97875 -17.625 38.9375 C-18.07568343 34.20532401 -19.40518628 32.94187689 -22.53125 29.609375 C-26.15721779 25.63624009 -26.38694858 21.368281 -26.25 16.20703125 C-25.59137095 10.39257167 -22.24421944 6.73895522 -18 3 C-12.29716245 -1.05382428 -6.77278352 -0.85886747 0 0 Z " fill="#D0DBD4" transform="translate(43,16)"/>
<path d="M0 0 C1.1055189 0.93590504 2.20935453 1.87379858 3.3125 2.8125 C4.23482422 3.59560547 4.23482422 3.59560547 5.17578125 4.39453125 C5.77777344 4.92433594 6.37976562 5.45414063 7 6 C7.52658203 6.37769531 8.05316406 6.75539063 8.59570312 7.14453125 C10.73681851 9.97354323 10.37025072 12.89114211 10.29296875 16.29296875 C10.28172974 18.23079224 10.28172974 18.23079224 10.27026367 20.20776367 C10.24295166 21.85107666 10.21563965 23.49438965 10.1875 25.1875 C10.125625 30.405625 10.06375 35.62375 10 41 C-2.54 41 -15.08 41 -28 41 C-28 40.67 -28 40.34 -28 40 C-23.71 40 -19.42 40 -15 40 C-16.98 37.36 -18.96 34.72 -21 32 C-19.63875 31.731875 -18.2775 31.46375 -16.875 31.1875 C-8.70818911 29.33140661 -4.33566676 26.27473947 0.12890625 19.21484375 C1.30201682 16.23209177 1.22781588 13.6959495 1.1875 10.5 C1.18105469 9.3759375 1.17460938 8.251875 1.16796875 7.09375 C1.0295553 4.54436746 0.74334614 2.4262818 0 0 Z " fill="#B0C3BC" transform="translate(55,24)"/>
<path d="M0 0 C5.11308529 1.80887451 8.89848439 4.95725038 11.30859375 9.91796875 C13.24659542 15.75387209 14.02159406 21.65539431 11.4375 27.375 C8.34020341 32.58700254 3.91787436 36.38603427 -2 38 C-3.64421794 38.1630401 -5.29037911 38.3070106 -6.9375 38.4375 C-11.21598724 38.78284875 -14.27867557 39.74761942 -18 42 C-17.87625 40.989375 -17.7525 39.97875 -17.625 38.9375 C-18.07568343 34.20532401 -19.40518628 32.94187689 -22.53125 29.609375 C-26.15721779 25.63624009 -26.38694858 21.368281 -26.25 16.20703125 C-25.59137095 10.39257167 -22.24421944 6.73895522 -18 3 C-12.29716245 -1.05382428 -6.77278352 -0.85886747 0 0 Z M-18 10 C-18.33 9.67 -18.66 9.34 -19 9 C-19.66 9 -20.32 9 -21 9 C-22.61297605 13.74404721 -23.4385133 17.13118575 -22 22 C-20.7511573 23.5833253 -20.7511573 23.5833253 -19 25 C-18.21625 26.010625 -17.4325 27.02125 -16.625 28.0625 C-13.96344899 31.04090233 -12.84788027 32.19462971 -9 33 C-2.89330209 33 0.11301098 31.69029323 4.65234375 27.66796875 C6.16830127 25.79169669 6.59619488 24.35638177 7 22 C7.66 22 8.32 22 9 22 C10.22536159 19.45229028 10.22536159 19.45229028 10 16 C6.93077471 11.45328165 3.24873372 6.96449726 -2 5 C-9.06883692 3.891849 -13.0819372 4.82309179 -18 10 Z " fill="#2A4C66" transform="translate(43,16)"/>
<path d="M0 0 C4.74947683 1.68023945 7.86516186 4.33424022 10.5625 8.5625 C12.03878317 12.09274237 12.11547357 12.62403031 11 16 C10.39671875 15.44570313 9.7934375 14.89140625 9.171875 14.3203125 C8.37265625 13.59585937 7.5734375 12.87140625 6.75 12.125 C5.96109375 11.40570313 5.1721875 10.68640625 4.359375 9.9453125 C-0.2625401 6.13452819 -3.68434726 5.56742208 -9.5859375 5.671875 C-12.98441866 6.13380448 -14.71999073 7.49934467 -17 10 C-17.33 10.66 -17.66 11.32 -18 12 C-18.66 11.67 -19.32 11.34 -20 11 C-19.67 10.34 -19.34 9.68 -19 9 C-19.66 9 -20.32 9 -21 9 C-20.979375 9.886875 -20.95875 10.77375 -20.9375 11.6875 C-20.99286219 14.62169631 -21.3305734 17.15493696 -22 20 C-22.99 20.33 -23.98 20.66 -25 21 C-25.33 21.66 -25.66 22.32 -26 23 C-26.4434734 15.60877663 -25.69772996 11.05269443 -20.625 5.3125 C-14.07003297 -0.46211381 -8.56834317 -1.08656526 0 0 Z " fill="#4B7B90" transform="translate(43,16)"/>
<path d="M0 0 C4.10703441 0.85563217 5.55401113 2.24378009 8 5.625 C8.66154724 9.74129392 8.39475662 11.85193494 6.5 15.5625 C3.47072721 18.06165005 1.75272434 18.3709903 -2.09375 18.10546875 C-4 17.625 -4 17.625 -6.5 15.5625 C-8.39475662 11.85193494 -8.66154724 9.74129392 -8 5.625 C-5.55401113 2.24378009 -4.10703441 0.85563217 0 0 Z " fill="#0F0F0F" transform="translate(142,30.375)"/>
<path d="M0 0 C4.95 0 9.9 0 15 0 C15 1.32 15 2.64 15 4 C11.37 4 7.74 4 4 4 C4 5.65 4 7.3 4 9 C6.97 9 9.94 9 13 9 C13 10.32 13 11.64 13 13 C10.36 13 7.72 13 5 13 C5 14.65 5 16.3 5 18 C8.3 18 11.6 18 15 18 C15 19.32 15 20.64 15 22 C10.05 22 5.1 22 0 22 C0 14.74 0 7.48 0 0 Z " fill="#1B1B1B" transform="translate(181,26)"/>
<path d="M0 0 C1.01513672 -0.00483398 1.01513672 -0.00483398 2.05078125 -0.00976562 C5.73473014 0.03019832 7.36207954 0.22055303 10.5 2.3125 C10.8125 5.8125 10.8125 5.8125 10.5 9.3125 C7.87276176 11.93973824 5.95788327 11.57365971 2.37890625 11.5859375 C1.59386719 11.57820313 0.80882812 11.57046875 0 11.5625 C-1.17755859 11.57410156 -1.17755859 11.57410156 -2.37890625 11.5859375 C-8.24669213 11.56580787 -8.24669213 11.56580787 -10.5 9.3125 C-11.04589731 4.18106524 -11.04589731 4.18106524 -9.44921875 1.640625 C-6.47933132 -0.3829456 -3.46202488 -0.08242916 0 0 Z " fill="#204F6B" transform="translate(36.5,27.6875)"/>
<path d="M0 0 C1.65 0 3.3 0 5 0 C5.67467562 1.74692795 6.33944156 3.49768525 7 5.25 C7.556875 6.71179687 7.556875 6.71179687 8.125 8.203125 C9 11 9 11 9 15 C9.66 15 10.32 15 11 15 C11.12117188 14.41992188 11.24234375 13.83984375 11.3671875 13.2421875 C12.33735474 8.71971558 13.43397783 4.36249034 15 0 C16.65 0 18.3 0 20 0 C17.84071065 7.39393019 15.4695482 14.70417741 13 22 C11.02 22 9.04 22 7 22 C5.82828244 18.71010914 4.66348912 15.41780898 3.5 12.125 C3.16613281 11.18785156 2.83226563 10.25070313 2.48828125 9.28515625 C2.17246094 8.38925781 1.85664062 7.49335937 1.53125 6.5703125 C1.23798828 5.74289551 0.94472656 4.91547852 0.64257812 4.06298828 C0 2 0 2 0 0 Z " fill="#151515" transform="translate(79,26)"/>
<path d="M0 0 C1.70703125 1.1640625 1.70703125 1.1640625 3 3 C3.29296875 5.69921875 3.29296875 5.69921875 3.1875 8.6875 C3.16042969 9.68136719 3.13335937 10.67523438 3.10546875 11.69921875 C3.07066406 12.45847656 3.03585938 13.21773437 3 14 C3.66 14 4.32 14 5 14 C5 14.99 5 15.98 5 17 C3.35 17 1.7 17 0 17 C0 16.34 0 15.68 0 15 C-0.99 15.66 -1.98 16.32 -3 17 C-6.0625 17.25 -6.0625 17.25 -9 17 C-11 15 -11 15 -11.25 12.5 C-11 10 -11 10 -9 8 C-7.2365625 7.505 -7.2365625 7.505 -5.4375 7 C-4.303125 6.67 -3.16875 6.34 -2 6 C-1.67 5.34 -1.34 4.68 -1 4 C-5.455 4.495 -5.455 4.495 -10 5 C-10 4.01 -10 3.02 -10 2 C-6.30513897 -0.46324069 -4.36706908 -0.38991688 0 0 Z " fill="#161616" transform="translate(237,31)"/>
<path d="M0 0 C2.375 1.625 2.375 1.625 4 4 C4.25 7.25 4.25 7.25 4 10 C0.37 10 -3.26 10 -7 10 C-6.01 11.485 -6.01 11.485 -5 13 C-1.535 12.505 -1.535 12.505 2 12 C2 13.32 2 14.64 2 16 C1 17 1 17 -2.8125 17.3125 C-5.74120299 17.24940406 -6.89452629 17.06064738 -9.5 15.5625 C-11.72920717 11.75427109 -11.90705593 8.29865635 -11 4 C-7.78310078 0.120798 -4.95398976 -0.8432323 0 0 Z " fill="#141414" transform="translate(268,31)"/>
<path d="M0 0 C2.5625 0.3125 2.5625 0.3125 4.2109375 1.3828125 C6.28670477 4.34648022 5.8479277 6.94196032 5.75 10.5 C5.72292969 11.77230469 5.69585937 13.04460938 5.66796875 14.35546875 C5.63316406 15.33128906 5.59835938 16.30710937 5.5625 17.3125 C4.2425 17.3125 2.9225 17.3125 1.5625 17.3125 C1.2325 13.3525 0.9025 9.3925 0.5625 5.3125 C-1.0875 5.6425 -2.7375 5.9725 -4.4375 6.3125 C-4.7675 9.9425 -5.0975 13.5725 -5.4375 17.3125 C-6.7575 17.3125 -8.0775 17.3125 -9.4375 17.3125 C-9.4375 12.0325 -9.4375 6.7525 -9.4375 1.3125 C-6.9625 1.8075 -6.9625 1.8075 -4.4375 2.3125 C-2.4375 0.3125 -2.4375 0.3125 0 0 Z " fill="#141414" transform="translate(163.4375,30.6875)"/>
<path d="M0 0 C3.63525099 2.7071018 6.05597607 5.90731803 8 10 C8.1875 12.8125 8.1875 12.8125 8 15 C7.731875 14.401875 7.46375 13.80375 7.1875 13.1875 C5.96985086 10.9444621 4.96269556 9.61743035 3 8 C1.07435138 7.59011951 1.07435138 7.59011951 -1.01171875 7.70703125 C-1.76904297 7.71669922 -2.52636719 7.72636719 -3.30664062 7.73632812 C-4.09232422 7.76146484 -4.87800781 7.78660156 -5.6875 7.8125 C-6.48478516 7.82603516 -7.28207031 7.83957031 -8.10351562 7.85351562 C-10.06929967 7.88882911 -12.03473582 7.94263553 -14 8 C-14.66 10.31 -15.32 12.62 -16 15 C-16.33 15 -16.66 15 -17 15 C-17.33 12.69 -17.66 10.38 -18 8 C-17.34 8 -16.68 8 -16 8 C-15.9071875 7.13375 -15.9071875 7.13375 -15.8125 6.25 C-13.27418182 -0.77918881 -6.46465153 -1.2354194 0 0 Z " fill="#EDF1E2" transform="translate(41,21)"/>
<path d="M0 0 C2.125 0 2.125 0 5 1 C6.64332141 2.95735927 8.05604794 5.01866786 9.5078125 7.12109375 C11.36806872 9.46345826 13.10481277 10.31877947 16 11 C16 12.33333333 16 13.66666667 16 15 C18.31 15.33 20.62 15.66 23 16 C23 16.33 23 16.66 23 17 C22.02160156 17.05607422 22.02160156 17.05607422 21.0234375 17.11328125 C15.68377043 17.51493762 11.6795908 18.16761609 7 21 C7.185625 19.4840625 7.185625 19.4840625 7.375 17.9375 C6.92190487 13.18000109 5.57703323 12.07155095 2.40234375 8.77734375 C0.17326611 5.95218964 0.14421671 3.53330934 0 0 Z " fill="#3C667E" transform="translate(18,37)"/>
<path d="M0 0 C1.875 1.5 1.875 1.5 3 3 C0 5 0 5 -2.6875 4.625 C-3.450625 4.41875 -4.21375 4.2125 -5 4 C-4.11407985 6.35001566 -4.11407985 6.35001566 -1 7.0625 C-0.01 7.371875 0.98 7.68125 2 8 C3 9 3 9 3.1875 11.9375 C3 15 3 15 1 17 C-1.1640625 17.1953125 -1.1640625 17.1953125 -3.625 17.125 C-4.44226563 17.10695313 -5.25953125 17.08890625 -6.1015625 17.0703125 C-6.72804688 17.04710938 -7.35453125 17.02390625 -8 17 C-8.66 15.68 -9.32 14.36 -10 13 C-6.23375329 11.74458443 -4.62811066 12.62938042 -1 14 C-1.33 13.01 -1.66 12.02 -2 11 C-4.97503122 9.84164327 -4.97503122 9.84164327 -8 9 C-9 8 -9 8 -9.25 5.0625 C-9.1675 4.051875 -9.085 3.04125 -9 2 C-5.53076119 -0.31282587 -4.07794425 -0.42478586 0 0 Z " fill="#1A1A1A" transform="translate(284,31)"/>
<path d="M0 0 C1.875 1.5 1.875 1.5 3 3 C0 5 0 5 -2.6875 4.625 C-3.450625 4.41875 -4.21375 4.2125 -5 4 C-4.11407985 6.35001566 -4.11407985 6.35001566 -1 7.0625 C-0.01 7.371875 0.98 7.68125 2 8 C3 9 3 9 3.1875 11.9375 C3 15 3 15 1 17 C-1.1640625 17.1953125 -1.1640625 17.1953125 -3.625 17.125 C-4.44226563 17.10695313 -5.25953125 17.08890625 -6.1015625 17.0703125 C-6.72804688 17.04710938 -7.35453125 17.02390625 -8 17 C-8.66 15.68 -9.32 14.36 -10 13 C-6.23375329 11.74458443 -4.62811066 12.62938042 -1 14 C-1.33 13.01 -1.66 12.02 -2 11 C-4.97503122 9.84164327 -4.97503122 9.84164327 -8 9 C-9 8 -9 8 -9.25 5.0625 C-9.1675 4.051875 -9.085 3.04125 -9 2 C-5.53076119 -0.31282587 -4.07794425 -0.42478586 0 0 Z " fill="#1A1A1A" transform="translate(119,31)"/>
<path d="M0 0 C0.66 0.33 1.32 0.66 2 1 C1.67 2.32 1.34 3.64 1 5 C-1.31 4.67 -3.62 4.34 -6 4 C-4.694761 6.61047801 -3.64173426 6.68066423 -0.9375 7.625 C0.16271484 8.01558594 0.16271484 8.01558594 1.28515625 8.4140625 C2.13400391 8.70410156 2.13400391 8.70410156 3 9 C3.1875 11.875 3.1875 11.875 3 15 C-0.08888522 17.05925681 -0.70935927 17.2390374 -4.1875 17.125 C-5.445625 17.08375 -6.70375 17.0425 -8 17 C-8.66 15.68 -9.32 14.36 -10 13 C-6.72724974 13 -4.153368 13.29925156 -1 14 C-1.33 13.01 -1.66 12.02 -2 11 C-3.98248715 10.28293018 -5.98415349 9.61709587 -8 9 C-8.66 8.34 -9.32 7.68 -10 7 C-9.8125 4.5 -9.8125 4.5 -9 2 C-5.54337669 -0.30441554 -4.05142119 -0.25860135 0 0 Z " fill="#181818" transform="translate(208,31)"/>
<path d="M0 0 C1.65 0 3.3 0 5 0 C5 0.99 5 1.98 5 3 C6.32 3 7.64 3 9 3 C9 4.32 9 5.64 9 7 C7.68 7 6.36 7 5 7 C5 9.97 5 12.94 5 16 C6.32 16 7.64 16 9 16 C9 17.32 9 18.64 9 20 C3.51923077 20.36538462 3.51923077 20.36538462 1.3125 18.8125 C-0.45312631 16.37425415 -0.30348915 14.78955493 -0.1875 11.8125 C-0.16042969 10.91144531 -0.13335937 10.01039062 -0.10546875 9.08203125 C-0.07066406 8.39496094 -0.03585938 7.70789062 0 7 C-0.66 7 -1.32 7 -2 7 C-2 5.68 -2 4.36 -2 3 C-1.34 3 -0.68 3 0 3 C0 2.01 0 1.02 0 0 Z " fill="#353535" transform="translate(245,28)"/>
<path d="M0 0 C3.56013866 2.67010399 6.64308416 5.19267441 9 9 C8.75 12.3125 8.75 12.3125 8 15 C7.34 15 6.68 15 6 15 C5.690625 16.0828125 5.690625 16.0828125 5.375 17.1875 C3.53070351 20.95992464 1.49476443 22.69213669 -2 25 C-5.875 25.3125 -5.875 25.3125 -9 25 C-8.34 24.67 -7.68 24.34 -7 24 C-7 23.34 -7 22.68 -7 22 C-8.32 21.34 -9.64 20.68 -11 20 C-11 19.34 -11 18.68 -11 18 C-8.69 18 -6.38 18 -4 18 C-3.67 18.66 -3.34 19.32 -3 20 C0.87398572 16.77167856 1.93503794 13.88107612 3 9 C3 5.44044831 2.10658705 4.72100827 0 2 C0 1.34 0 0.68 0 0 Z " fill="#B7D1D1" transform="translate(44,23)"/>
<path d="M0 0 C1.32 0 2.64 0 4 0 C4 1.32 4 2.64 4 4 C5.65 4 7.3 4 9 4 C9 4.99 9 5.98 9 7 C7.35 7 5.7 7 4 7 C4 9.97 4 12.94 4 16 C5.65 16 7.3 16 9 16 C9 17.32 9 18.64 9 20 C5.625 20.1875 5.625 20.1875 2 20 C-0.20914 16.68629 -0.22481553 15.6553979 -0.125 11.8125 C-0.10695312 10.91144531 -0.08890625 10.01039062 -0.0703125 9.08203125 C-0.04710937 8.39496094 -0.02390625 7.70789062 0 7 C-0.66 7 -1.32 7 -2 7 C-2 5.68 -2 4.36 -2 3 C-1.34 3 -0.68 3 0 3 C0 2.01 0 1.02 0 0 Z " fill="#131313" transform="translate(215,28)"/>
<path d="M0 0 C0.39832031 0.49113281 0.79664063 0.98226562 1.20703125 1.48828125 C3.5121755 3.43183425 4.7196719 3.316536 7.6875 3.1875 C8.89986328 3.14689453 8.89986328 3.14689453 10.13671875 3.10546875 C11.05904297 3.05326172 11.05904297 3.05326172 12 3 C11.67 3.99 11.34 4.98 11 6 C9.22265625 6.703125 9.22265625 6.703125 7.0625 7.25 C4.87642408 7.90088363 4.87642408 7.90088363 3 9 C1.38864654 12.54863159 1.38864654 12.54863159 1 16 C0.67 14.68 0.34 13.36 0 12 C-1.65 12 -3.3 12 -5 12 C-5 9.03 -5 6.06 -5 3 C-3.35 3 -1.7 3 0 3 C0 2.01 0 1.02 0 0 Z " fill="#F2F2F2" transform="translate(224,32)"/>
<path d="M0 0 C1.23076923 5.41538462 1.23076923 5.41538462 0.0625 8.375 C-0.288125 8.91125 -0.63875 9.4475 -1 10 C-3.875 10.125 -3.875 10.125 -7 10 C-9 8 -9 8 -9.25 5.5 C-9 3 -9 3 -7 1 C-4.49940039 0.19335496 -2.66053211 0 0 0 Z " fill="#191919" transform="translate(235,38)"/>
<path d="M0 0 C0.99 0.33 1.98 0.66 3 1 C1.68 2.65 0.36 4.3 -1 6 C-0.34 5.67 0.32 5.34 1 5 C-0.46151929 8.85309632 -2.31277435 10.24018776 -6 12 C-11.23234079 13.51156512 -14.90811275 12.49244971 -20 11 C-20 10.67 -20 10.34 -20 10 C-19.41992188 9.89042969 -18.83984375 9.78085937 -18.2421875 9.66796875 C-10.53999806 8.10465307 -5.42973078 5.90882467 0 0 Z " fill="#96B5B5" transform="translate(54,46)"/>
<path d="M0 0 C0.66 0.66 1.32 1.32 2 2 C1.01 2.99 0.02 3.98 -1 5 C-0.67 5.99 -0.34 6.98 0 8 C-0.33 8.66 -0.66 9.32 -1 10 C-1.66 9.67 -2.32 9.34 -3 9 C-2.67 8.34 -2.34 7.68 -2 7 C-2.66 7 -3.32 7 -4 7 C-3.979375 7.886875 -3.95875 8.77375 -3.9375 9.6875 C-3.99286219 12.62169631 -4.3305734 15.15493696 -5 18 C-5.99 18.33 -6.98 18.66 -8 19 C-8.33 19.66 -8.66 20.32 -9 21 C-9.34745899 15.20901689 -9.30075823 11.00804697 -6 6 C-3.375 3.1875 -3.375 3.1875 -1 1 C-0.67 0.67 -0.34 0.34 0 0 Z " fill="#518195" transform="translate(26,18)"/>
<path d="M0 0 C2.97 0.495 2.97 0.495 6 1 C5.34 5.95 4.68 10.9 4 16 C2.68 16 1.36 16 0 16 C0 10.72 0 5.44 0 0 Z " fill="#080808" transform="translate(154,32)"/>
<path d="M0 0 C4.55555556 0.55555556 4.55555556 0.55555556 6 2 C6.1875 4.9375 6.1875 4.9375 6 8 C5.34 8.66 4.68 9.32 4 10 C-0.55555556 9.44444444 -0.55555556 9.44444444 -2 8 C-2.1875 5.0625 -2.1875 5.0625 -2 2 C-1.34 1.34 -0.68 0.68 0 0 Z " fill="#E7E7E7" transform="translate(140,35)"/>
<path d="M0 0 C1.32 0 2.64 0 4 0 C4 5.61 4 11.22 4 17 C2.68 17 1.36 17 0 17 C0 11.39 0 5.78 0 0 Z " fill="#0C0C0C" transform="translate(126,31)"/>
<path d="M0 0 C1.32 0 2.64 0 4 0 C4 5.61 4 11.22 4 17 C2.68 17 1.36 17 0 17 C0 11.39 0 5.78 0 0 Z " fill="#111111" transform="translate(102,31)"/>
<path d="M0 0 C0.99 0.33 1.98 0.66 3 1 C3 3.64 3 6.28 3 9 C4.65 9 6.3 9 8 9 C8 10.32 8 11.64 8 13 C5.125 13.125 5.125 13.125 2 13 C0 11 0 11 -0.1953125 8.3984375 C-0.17210937 7.40070312 -0.14890625 6.40296875 -0.125 5.375 C-0.10695312 4.37210938 -0.08890625 3.36921875 -0.0703125 2.3359375 C-0.04710937 1.56507812 -0.02390625 0.79421875 0 0 Z " fill="#111111" transform="translate(246,35)"/>
<path d="M0 0 C0.33 0 0.66 0 1 0 C1.125 2.375 1.125 2.375 1 5 C-1 7 -1 7 -4.6953125 7.1953125 C-6.17200108 7.182009 -7.64862358 7.15814835 -9.125 7.125 C-9.87910156 7.11597656 -10.63320313 7.10695313 -11.41015625 7.09765625 C-13.27357254 7.0740687 -15.13682593 7.03819719 -17 7 C-16.37351562 6.71382812 -15.74703125 6.42765625 -15.1015625 6.1328125 C-12.63556102 4.8035552 -11.63630484 3.23132478 -10 1 C-9.34 1 -8.68 1 -8 1 C-7.67 1.99 -7.34 2.98 -7 4 C-5.02 4 -3.04 4 -1 4 C-0.67 2.68 -0.34 1.36 0 0 Z " fill="#183A56" transform="translate(46,32)"/>
<path d="M0 0 C0.66 0 1.32 0 2 0 C2.68707555 2.49064888 3 4.37886292 3 7 C3.33 7 3.66 7 4 7 C4.33 8.98 4.66 10.96 5 13 C3.1875 13.6875 3.1875 13.6875 1 14 C-0.8125 12.875 -0.8125 12.875 -2 11 C-1.75 8.6875 -1.75 8.6875 -1 6 C-0.66055205 4.00102872 -0.32578384 2.00124361 0 0 Z " fill="#C5D5D3" transform="translate(22,25)"/>
<path d="M0 0 C-1.65 1.32 -3.3 2.64 -5 4 C-5.66 3.67 -6.32 3.34 -7 3 C-6.67 2.34 -6.34 1.68 -6 1 C-6.78375 1.185625 -7.5675 1.37125 -8.375 1.5625 C-11 2 -11 2 -13 1 C-13.33 1.66 -13.66 2.32 -14 3 C-14 2.34 -14 1.68 -14 1 C-14.99 0.67 -15.98 0.34 -17 0 C-14.54203147 -0.19436491 -12.08390706 -0.3807742 -9.625 -0.5625 C-8.92632812 -0.61857422 -8.22765625 -0.67464844 -7.5078125 -0.73242188 C-2.2265625 -1.11328125 -2.2265625 -1.11328125 0 0 Z " fill="#F9FBEE" transform="translate(46,40)"/>
<path d="M0 0 C1.65 0 3.3 0 5 0 C5.33 1.65 5.66 3.3 6 5 C2.25 6.125 2.25 6.125 0 5 C0 3.35 0 1.7 0 0 Z " fill="#52BFCD" transform="translate(28,30)"/>
<path d="M0 0 C2.5625 1.375 2.5625 1.375 5 4 C5.25136415 7.43713152 4.91411575 10.67649305 4 14 C3.01 14.495 3.01 14.495 2 15 C1.93941406 14.25234375 1.87882812 13.5046875 1.81640625 12.734375 C1.73261719 11.74953125 1.64882813 10.7646875 1.5625 9.75 C1.48128906 8.77546875 1.40007813 7.8009375 1.31640625 6.796875 C1.04925416 4.43538247 0.64628032 2.28098935 0 0 Z " fill="#98B7B8" transform="translate(55,24)"/>
<path d="M0 0 C2.31 0 4.62 0 7 0 C7.66666667 1.33333333 8.33333333 2.66666667 9 4 C8.01 4.495 8.01 4.495 7 5 C7 5.66 7 6.32 7 7 C5.35 7 3.7 7 2 7 C2.66 6.67 3.32 6.34 4 6 C4 5.34 4 4.68 4 4 C2.68 3.34 1.36 2.68 0 2 C0 1.34 0 0.68 0 0 Z " fill="#95ABB0" transform="translate(33,41)"/>
<path d="M0 0 C2.53926173 1.82671379 4.9050512 3.66877878 7 6 C7.4375 9.375 7.4375 9.375 7 12 C6.34 12 5.68 12 5 12 C4.28385417 10.046875 3.56770833 8.09375 2.8515625 6.140625 C2.01000989 4.02516248 1.04673506 2.02065376 0 0 Z " fill="#32526B" transform="translate(49,27)"/>
<path d="M0 0 C3.375 -0.125 3.375 -0.125 7 0 C7.66 0.66 8.32 1.32 9 2 C6 4 6 4 3.3125 3.625 C2.549375 3.41875 1.78625 3.2125 1 3 C0.67 2.01 0.34 1.02 0 0 Z " fill="#E7E7E7" transform="translate(261,41)"/>
<path d="M0 0 C-0.33 1.65 -0.66 3.3 -1 5 C-2.65 4.67 -4.3 4.34 -6 4 C-5.67 3.01 -5.34 2.02 -5 1 C-2 0 -2 0 0 0 Z " fill="#DDDDDD" transform="translate(236,40)"/>
<path d="M0 0 C1.2065625 0.0309375 1.2065625 0.0309375 2.4375 0.0625 C2.7675 1.3825 3.0975 2.7025 3.4375 4.0625 C1.0625 4.25 1.0625 4.25 -1.5625 4.0625 C-2.2225 3.0725 -2.8825 2.0825 -3.5625 1.0625 C-2.5625 0.0625 -2.5625 0.0625 0 0 Z " fill="#DBDBDB" transform="translate(203.5625,40.9375)"/>
<path d="M0 0 C-0.33 0.99 -0.66 1.98 -1 3 C-2.98 3.33 -4.96 3.66 -7 4 C-7.33 3.01 -7.66 2.02 -8 1 C-5.29120665 -0.35439668 -2.99066732 -0.06501451 0 0 Z " fill="#DADADA" transform="translate(236,35)"/>
<path d="M0 0 C1.65 0 3.3 0 5 0 C5.33 1.32 5.66 2.64 6 4 C3.03 3.505 3.03 3.505 0 3 C0 2.01 0 1.02 0 0 Z " fill="#E2E2E2" transform="translate(277,41)"/>
<path d="M0 0 C1.65 0 3.3 0 5 0 C5.33 1.32 5.66 2.64 6 4 C3.03 3.505 3.03 3.505 0 3 C0 2.01 0 1.02 0 0 Z " fill="#E2E2E2" transform="translate(112,41)"/>
<path d="M0 0 C0.99 0.33 1.98 0.66 3 1 C3 2.98 3 4.96 3 7 C2.34 7 1.68 7 1 7 C0.67 7.66 0.34 8.32 0 9 C0 6.03 0 3.06 0 0 Z " fill="#020202" transform="translate(246,35)"/>
<path d="M0 0 C1.9375 0.3125 1.9375 0.3125 4 1 C4.33 1.99 4.66 2.98 5 4 C2.69 4 0.38 4 -2 4 C-1.34 2.68 -0.68 1.36 0 0 Z " fill="#DBDBDB" transform="translate(263,34)"/>
<path d="M0 0 C0.33 0 0.66 0 1 0 C1.125 2.375 1.125 2.375 1 5 C0.34 5.66 -0.32 6.32 -1 7 C-3.625 6.625 -3.625 6.625 -6 6 C-6.33 4.35 -6.66 2.7 -7 1 C-6.67 1.99 -6.34 2.98 -6 4 C-4.35 4 -2.7 4 -1 4 C-0.67 2.68 -0.34 1.36 0 0 Z " fill="#1E6582" transform="translate(34,31)"/>
<path d="M0 0 C1.98 0.495 1.98 0.495 4 1 C3.67 2.32 3.34 3.64 3 5 C1.68 4.67 0.36 4.34 -1 4 C-0.67 2.68 -0.34 1.36 0 0 Z " fill="#6EE5EB" transform="translate(40,31)"/>
<path d="M0 0 C1.32 0 2.64 0 4 0 C3.67 1.65 3.34 3.3 3 5 C1.68 4.34 0.36 3.68 -1 3 C-0.67 2.01 -0.34 1.02 0 0 Z " fill="#212121" transform="translate(126,25)"/>
<path d="M0 0 C1.32 0 2.64 0 4 0 C3.67 1.65 3.34 3.3 3 5 C1.68 4.34 0.36 3.68 -1 3 C-0.67 2.01 -0.34 1.02 0 0 Z " fill="#1F1F1F" transform="translate(102,25)"/>
<path d="M0 0 C0.268125 0.639375 0.53625 1.27875 0.8125 1.9375 C1.88667752 4.33131686 1.88667752 4.33131686 5 5 C2 7 2 7 -1 7 C-0.67 4.69 -0.34 2.38 0 0 Z " fill="#F2F3E8" transform="translate(24,53)"/>
<path d="M0 0 C0.99 0.99 1.98 1.98 3 3 C1.68 4.32 0.36 5.64 -1 7 C-1.625 5.1875 -1.625 5.1875 -2 3 C-1.34 2.01 -0.68 1.02 0 0 Z " fill="#2D4E67" transform="translate(27,51)"/>
</svg>
