<?xml version="1.0" standalone="no"?>
<!DOCTYPE svg PUBLIC "-//W3C//DTD SVG 20010904//EN"
 "http://www.w3.org/TR/2001/REC-SVG-20010904/DTD/svg10.dtd">
<svg version="1.0" xmlns="http://www.w3.org/2000/svg"
 width="765.000000pt" height="765.000000pt" viewBox="0 0 765.000000 765.000000"
 preserveAspectRatio="xMidYMid meet">

<g transform="translate(0.000000,765.000000) scale(0.100000,-0.100000)"
fill="#000000" stroke="none">
<path d="M0 7615 l0 -35 3825 0 3825 0 0 35 0 35 -3825 0 -3825 0 0 -35z"/>
<path d="M3566 6550 c-338 -42 -566 -109 -851 -252 -137 -69 -216 -118 -209
-129 3 -6 0 -9 -7 -7 -15 3 -79 -32 -79 -43 0 -4 10 -5 23 -2 26 7 22 1 -12
-17 -15 -8 -21 -8 -17 -1 13 20 -15 11 -52 -16 -49 -37 -62 -50 -62 -61 0 -5
-8 -9 -17 -8 -10 0 -19 -7 -21 -16 -2 -10 1 -18 7 -18 6 0 8 8 5 18 -5 16 -5
16 6 0 11 -19 36 -26 25 -8 -3 6 -1 10 5 10 7 0 10 -6 8 -12 -6 -16 -49 -19
-65 -6 -9 7 -13 7 -13 -1 0 -6 -4 -10 -9 -8 -14 4 -152 -124 -145 -135 4 -6 2
-8 -3 -5 -13 8 -96 -80 -89 -92 3 -5 -2 -15 -12 -22 -16 -13 -16 -12 -2 6 8
11 0 7 -18 -9 -18 -17 -31 -37 -30 -45 2 -9 -4 -16 -12 -16 -8 -1 -14 -6 -12
-13 1 -7 -2 -11 -7 -10 -10 3 -111 -129 -184 -238 -81 -124 -214 -392 -253
-512 -8 -26 -19 -56 -24 -67 -13 -29 -58 -198 -75 -283 -46 -225 -62 -567 -37
-782 23 -189 81 -433 148 -619 175 -485 561 -973 990 -1249 l50 -33 -27 -128
c-24 -111 -84 -352 -155 -621 -30 -114 -39 -180 -26 -180 6 0 64 36 129 81
224 154 440 293 618 399 77 46 157 94 178 107 38 24 39 24 87 8 136 -45 550
-66 793 -41 492 52 865 194 1239 474 168 125 279 230 406 381 53 64 103 122
109 129 10 10 123 180 191 287 27 43 153 305 171 356 82 235 105 315 135 464
52 263 61 428 35 684 -48 481 -190 858 -480 1270 -231 330 -640 670 -981 817
-46 19 -108 46 -138 59 -103 44 -293 100 -445 129 -226 44 -554 55 -789 26z
m-692 -229 c4 -5 -3 -7 -14 -4 -23 6 -26 13 -6 13 8 0 17 -4 20 -9z m-167 -77
c-3 -3 -12 -4 -19 -1 -8 3 -5 6 6 6 11 1 17 -2 13 -5z m-27 -15 c12 -8 10 -9
-8 -4 -13 4 -30 1 -39 -7 -14 -11 -16 -11 -8 1 6 11 4 13 -9 8 -10 -4 -15 -3
-11 3 8 13 56 13 75 -1z m-133 -48 c2 -19 -35 -42 -65 -40 -9 0 -1 5 18 11 19
6 29 13 22 15 -10 4 -8 9 5 19 10 7 18 14 18 14 1 0 1 -8 2 -19z m-307 -232
c0 -6 -4 -7 -10 -4 -5 3 -10 11 -10 16 0 6 5 7 10 4 6 -3 10 -11 10 -16z m-30
-13 c0 -3 -4 -8 -10 -11 -5 -3 -10 -1 -10 4 0 6 5 11 10 11 6 0 10 -2 10 -4z
m-32 -28 c-2 -6 -12 -12 -21 -14 -9 -1 -15 2 -11 7 3 5 10 7 15 4 5 -4 9 -1 9
4 0 6 3 11 6 11 3 0 4 -5 2 -12z m1959 -18 c197 -29 319 -66 518 -160 338
-159 611 -402 787 -703 70 -119 146 -282 164 -350 l18 -65 47 -6 c120 -16 262
-128 323 -255 94 -196 58 -481 -81 -656 -47 -59 -134 -110 -217 -127 -53 -10
-56 -12 -62 -47 -58 -353 -378 -806 -739 -1048 -217 -145 -475 -252 -725 -301
-356 -70 -743 -11 -1100 168 -220 111 -371 218 -519 369 -211 217 -409 557
-455 781 l-13 65 -49 6 c-132 16 -266 149 -325 319 -30 88 -37 265 -15 370 20
93 68 194 115 238 43 41 121 82 155 82 14 0 27 4 30 9 3 4 7 104 10 220 4 209
3 212 -18 221 -11 5 -34 20 -51 33 -26 22 -30 31 -33 97 -4 67 -3 75 19 92 56
45 85 58 130 58 38 0 52 -6 87 -36 50 -42 72 -81 72 -125 0 -25 -11 -43 -47
-79 l-48 -48 6 -176 c3 -96 7 -178 10 -181 3 -2 13 28 22 67 20 83 114 274
189 386 65 97 148 194 257 300 47 46 85 88 84 93 -2 5 0 8 5 7 15 -4 52 23 46
34 -4 7 -3 8 4 4 10 -6 113 59 120 76 2 5 8 8 12 8 15 0 100 57 94 63 -3 3 1
4 8 4 7 -1 56 19 108 45 141 68 186 85 280 109 239 59 535 74 777 39z m-2057
-80 c0 -5 -2 -10 -4 -10 -3 0 -8 5 -11 10 -3 6 -1 10 4 10 6 0 11 -4 11 -10z
m-20 -55 c-7 -9 -15 -13 -17 -11 -7 7 7 26 19 26 6 0 6 -6 -2 -15z"/>
<path d="M3024 4916 c-273 -72 -470 -256 -565 -532 -39 -114 -50 -285 -25
-404 51 -244 250 -460 501 -546 107 -36 236 -41 1085 -36 515 3 681 7 735 18
83 16 211 77 282 133 65 52 152 161 191 237 84 167 103 442 42 619 -47 136
-89 204 -184 299 -100 100 -205 166 -331 208 l-70 23 -785 2 -785 2 -91 -23z
m146 -426 c0 -6 18 -7 44 -4 42 6 116 -17 116 -36 0 -4 7 -11 16 -14 8 -3 12
-2 9 4 -3 6 1 7 9 4 9 -3 14 -10 11 -14 -2 -4 4 -15 15 -25 11 -10 20 -24 20
-32 0 -14 16 -18 23 -5 2 4 2 1 0 -7 -2 -8 6 -20 18 -29 12 -8 19 -22 16 -31
-2 -10 2 -25 9 -35 22 -31 8 -181 -24 -246 -14 -30 -25 -59 -24 -63 1 -5 -1
-6 -6 -3 -4 2 -23 -11 -42 -31 -73 -74 -185 -105 -281 -77 -30 8 -62 15 -72
15 -9 0 -15 4 -12 9 9 14 -27 21 -44 8 -14 -11 -14 -11 -3 3 10 13 9 19 -3 29
-8 7 -15 9 -15 4 0 -5 -5 -2 -10 6 -9 13 -11 13 -20 0 -5 -8 -10 -10 -10 -4 0
5 6 16 13 23 8 10 8 12 0 7 -6 -3 -14 -2 -18 4 -4 6 -11 7 -17 4 -7 -4 -8 -2
-4 5 4 6 0 18 -9 27 -9 9 -19 29 -22 45 -3 16 -10 26 -15 23 -6 -4 -7 2 -3 16
5 15 4 20 -4 16 -6 -4 -11 0 -12 11 -2 53 -2 101 0 128 3 30 3 30 11 5 7 -23
8 -21 9 12 1 24 17 63 47 115 48 81 61 96 78 86 5 -3 6 -1 3 4 -8 13 43 33 87
34 17 0 40 4 51 9 28 12 65 12 65 0z m1453 -12 c3 -10 9 -10 25 -1 13 8 23 9
27 3 3 -6 1 -10 -6 -10 -7 0 -9 -3 -5 -7 7 -7 31 -12 77 -16 16 -1 26 -8 25
-17 -1 -8 7 -14 16 -14 14 1 16 -2 7 -17 -7 -13 -6 -19 1 -19 6 0 8 -5 4 -12
-5 -7 -2 -9 9 -5 11 4 14 2 10 -9 -3 -8 1 -14 11 -14 10 0 13 -6 9 -15 -3 -9
1 -23 9 -33 22 -26 40 -100 38 -156 -3 -82 -5 -94 -11 -90 -9 5 -19 -22 -19
-47 0 -11 -5 -17 -10 -14 -6 3 -13 -2 -17 -12 -4 -10 -15 -24 -25 -31 -10 -7
-15 -18 -12 -24 4 -7 2 -8 -4 -4 -6 4 -19 -5 -28 -19 -9 -14 -25 -25 -36 -25
-11 0 -29 -5 -41 -12 -23 -13 -208 -28 -201 -17 2 4 -3 10 -12 13 -9 3 -12 2
-8 -5 3 -6 -8 -3 -25 6 -18 9 -35 23 -38 31 -3 8 -12 13 -19 10 -7 -3 -16 0
-20 6 -5 7 -2 8 7 3 8 -5 3 4 -10 18 -13 15 -27 24 -32 22 -4 -3 -14 4 -22 15
-7 11 -16 18 -19 15 -3 -3 -4 8 -3 25 1 16 -2 27 -6 24 -9 -5 -22 32 -16 43 3
5 2 50 -2 101 -3 52 -3 96 1 98 5 3 8 15 8 27 0 25 30 77 62 110 11 12 17 16
13 8 -5 -8 7 -3 27 12 19 15 38 24 41 20 4 -3 7 -2 7 4 0 6 12 13 28 16 15 4
45 10 67 15 59 14 113 14 118 0z m-282 -566 c-6 -2 -8 -9 -4 -15 3 -7 2 -9 -2
-4 -5 4 -10 17 -12 29 -3 18 -1 19 13 7 10 -8 12 -15 5 -17z"/>
<path d="M3466 3149 c-72 -57 12 -191 169 -268 207 -102 510 -36 624 136 49
73 38 130 -28 146 -19 5 -36 -7 -92 -59 -100 -94 -138 -109 -274 -109 -99 0
-115 3 -166 28 -35 17 -78 50 -112 87 -60 65 -80 72 -121 39z"/>
</g>
</svg>
